<?xml version="1.0" standalone="no"?><!DOCTYPE svg PUBLIC "-//W3C//DTD SVG 1.1//EN" "http://www.w3.org/Graphics/SVG/1.1/DTD/svg11.dtd"><svg t="1535636126905" class="icon" style="" viewBox="0 0 1024 1024" version="1.1" xmlns="http://www.w3.org/2000/svg" p-id="1936" xmlns:xlink="http://www.w3.org/1999/xlink" width="128" height="128"><defs><style type="text/css"></style></defs><path d="M192 448l576 0 0 64-576 0 0-64Z" p-id="1937" fill="#bfbfbf"></path><path d="M448 768l0-576 64 0 0 576-64 0Z" p-id="1938" fill="#bfbfbf"></path><path d="M128 64a64 64 0 0 0-64 64v704a64 64 0 0 0 64 64h704a64 64 0 0 0 64-64V128a64 64 0 0 0-64-64H128z m0-64h704a128 128 0 0 1 128 128v704a128 128 0 0 1-128 128H128a128 128 0 0 1-128-128V128a128 128 0 0 1 128-128z" p-id="1939" fill="#bfbfbf"></path></svg>