<?xml version="1.0" standalone="no"?><!DOCTYPE svg PUBLIC "-//W3C//DTD SVG 1.1//EN" "http://www.w3.org/Graphics/SVG/1.1/DTD/svg11.dtd"><svg t="1535354307492" class="icon" style="" viewBox="0 0 1024 1024" version="1.1" xmlns="http://www.w3.org/2000/svg" p-id="3651" xmlns:xlink="http://www.w3.org/1999/xlink" width="32" height="32"><defs><style type="text/css"></style></defs><path d="M807.822222 409.6V307.2c0-170.666667-136.533333-307.2-295.822222-307.2-164.977778 0-295.822222 136.533333-295.822222 307.2v102.4C159.288889 409.6 113.777778 455.111111 113.777778 512v409.6c0 56.888889 45.511111 102.4 102.4 102.4h597.333333c56.888889 0 102.4-45.511111 102.4-102.4V512c-5.688889-56.888889-51.2-102.4-108.088889-102.4zM312.888889 307.2c0-113.777778 91.022222-204.8 199.111111-204.8s199.111111 91.022222 199.111111 204.8v102.4h-398.222222V307.2z m494.933333 614.4H216.177778V512h597.333333v409.6zM512 819.2c28.444444 0 51.2-22.755556 51.2-51.2v-102.4c0-28.444444-22.755556-51.2-51.2-51.2s-51.2 22.755556-51.2 51.2v102.4c0 28.444444 22.755556 51.2 51.2 51.2z" p-id="3652" fill="#ffffff"></path></svg>